<mxfile host="app.diagrams.net" modified="2020-10-19T21:33:19.536Z" agent="5.0 (Windows)" etag="mdt-lBBJe9WIpIwCV8JA" version="13.8.0" type="github">
  <diagram name="Page-1" id="64c3da0e-402f-94eb-ee01-a36477274f13">
    <mxGraphModel dx="2076" dy="1098" grid="1" gridSize="10" guides="1" tooltips="1" connect="1" arrows="1" fold="1" page="1" pageScale="1" pageWidth="1169" pageHeight="826" background="#ffffff" math="0" shadow="0">
      <root>
        <mxCell id="0" />
        <mxCell id="1" parent="0" />
        <mxCell id="2" value="1. PM Wiki Eintrag erstellen" style="whiteSpace=wrap;rounded=1;shadow=1;fillColor=#10739E;strokeColor=none;fontColor=#FFFFFF;fontStyle=1;fontSize=24" parent="1" vertex="1">
          <mxGeometry x="1000" y="50" width="340" height="60" as="geometry" />
        </mxCell>
        <mxCell id="4" value="1.1 Recherche" style="whiteSpace=wrap;rounded=1;fillColor=#F2931E;strokeColor=none;shadow=1;fontColor=#FFFFFF;fontStyle=1;fontSize=14" parent="1" vertex="1">
          <mxGeometry x="850" y="169.9999999999998" width="140" height="60" as="geometry" />
        </mxCell>
        <mxCell id="6" value="1.2 Lesen/Schauen" style="whiteSpace=wrap;rounded=1;fillColor=#F2931E;strokeColor=none;shadow=1;fontColor=#FFFFFF;fontStyle=1;fontSize=14" parent="1" vertex="1">
          <mxGeometry x="1020" y="169.9999999999998" width="140" height="60" as="geometry" />
        </mxCell>
        <mxCell id="7" value="1.3 Gestalten" style="whiteSpace=wrap;rounded=1;fillColor=#F2931E;strokeColor=none;shadow=1;fontColor=#FFFFFF;fontStyle=1;fontSize=14" parent="1" vertex="1">
          <mxGeometry x="1180" y="169.9999999999998" width="140" height="60" as="geometry" />
        </mxCell>
        <mxCell id="8" value="1.4 Posten" style="whiteSpace=wrap;rounded=1;fillColor=#F2931E;strokeColor=none;shadow=1;fontColor=#FFFFFF;fontStyle=1;fontSize=14" parent="1" vertex="1">
          <mxGeometry x="1350" y="169.9999999999998" width="140" height="60" as="geometry" />
        </mxCell>
        <mxCell id="116" value="" style="edgeStyle=elbowEdgeStyle;elbow=vertical;rounded=0;fontColor=#000000;endArrow=none;endFill=0;strokeWidth=8;strokeColor=#23445D;" parent="1" source="4" edge="1">
          <mxGeometry width="100" height="100" relative="1" as="geometry">
            <mxPoint x="560" y="239.99999999999977" as="sourcePoint" />
            <mxPoint x="920" y="310" as="targetPoint" />
            <Array as="points">
              <mxPoint x="920" y="300" />
            </Array>
          </mxGeometry>
        </mxCell>
        <mxCell id="229" value="" style="edgeStyle=elbowEdgeStyle;elbow=vertical;rounded=0;fontColor=#000000;endArrow=none;endFill=0;strokeWidth=8;strokeColor=#23445D;entryX=0.5;entryY=0;entryDx=0;entryDy=0;" parent="1" source="2" target="4" edge="1">
          <mxGeometry width="100" height="100" relative="1" as="geometry">
            <mxPoint x="540" y="140" as="sourcePoint" />
            <mxPoint x="230" y="169.9999999999999" as="targetPoint" />
          </mxGeometry>
        </mxCell>
        <mxCell id="230" value="" style="edgeStyle=elbowEdgeStyle;elbow=vertical;rounded=0;fontColor=#000000;endArrow=none;endFill=0;strokeWidth=8;strokeColor=#23445D;" parent="1" source="2" target="4" edge="1">
          <mxGeometry width="100" height="100" relative="1" as="geometry">
            <mxPoint x="550" y="150" as="sourcePoint" />
            <mxPoint x="650" y="50" as="targetPoint" />
          </mxGeometry>
        </mxCell>
        <mxCell id="231" value="" style="edgeStyle=elbowEdgeStyle;elbow=vertical;rounded=0;fontColor=#000000;endArrow=none;endFill=0;strokeWidth=8;strokeColor=#23445D;" parent="1" source="2" target="6" edge="1">
          <mxGeometry width="100" height="100" relative="1" as="geometry">
            <mxPoint x="560" y="160" as="sourcePoint" />
            <mxPoint x="660" y="60" as="targetPoint" />
          </mxGeometry>
        </mxCell>
        <mxCell id="232" value="" style="edgeStyle=elbowEdgeStyle;elbow=vertical;rounded=0;fontColor=#000000;endArrow=none;endFill=0;strokeWidth=8;strokeColor=#23445D;" parent="1" source="2" target="7" edge="1">
          <mxGeometry width="100" height="100" relative="1" as="geometry">
            <mxPoint x="570" y="170" as="sourcePoint" />
            <mxPoint x="670" y="70" as="targetPoint" />
          </mxGeometry>
        </mxCell>
        <mxCell id="233" value="" style="edgeStyle=elbowEdgeStyle;elbow=vertical;rounded=0;fontColor=#000000;endArrow=none;endFill=0;strokeWidth=8;strokeColor=#23445D;" parent="1" source="2" target="8" edge="1">
          <mxGeometry width="100" height="100" relative="1" as="geometry">
            <mxPoint x="580" y="180" as="sourcePoint" />
            <mxPoint x="680" y="80" as="targetPoint" />
          </mxGeometry>
        </mxCell>
        <mxCell id="B7-Tg69ytmA9G3G3-VEQ-234" value="1.1.1*&#xa;moodle" style="whiteSpace=wrap;rounded=1;fillColor=#999999;strokeColor=none;shadow=1;fontColor=#FFFFFF;fontStyle=0" parent="1" vertex="1">
          <mxGeometry x="859.9999999999998" y="300.0000000000001" width="120" height="60" as="geometry" />
        </mxCell>
        <mxCell id="B7-Tg69ytmA9G3G3-VEQ-235" value="1.1.2&#xa;wikipedia" style="whiteSpace=wrap;rounded=1;fillColor=#999999;strokeColor=none;shadow=1;fontColor=#FFFFFF;fontStyle=0" parent="1" vertex="1">
          <mxGeometry x="859.9999999999999" y="380.0000000000001" width="120" height="60" as="geometry" />
        </mxCell>
        <mxCell id="B7-Tg69ytmA9G3G3-VEQ-236" value="1.1.3&#xa;unikat" style="whiteSpace=wrap;rounded=1;fillColor=#999999;strokeColor=none;shadow=1;fontColor=#FFFFFF;fontStyle=0" parent="1" vertex="1">
          <mxGeometry x="859.9999999999998" y="460.0000000000001" width="120" height="60" as="geometry" />
        </mxCell>
        <mxCell id="B7-Tg69ytmA9G3G3-VEQ-237" value="1.1.4&#xa;libgen" style="whiteSpace=wrap;rounded=1;fillColor=#999999;strokeColor=none;shadow=1;fontColor=#FFFFFF;fontStyle=0" parent="1" vertex="1">
          <mxGeometry x="860" y="540.0000000000001" width="120" height="60" as="geometry" />
        </mxCell>
        <mxCell id="B7-Tg69ytmA9G3G3-VEQ-238" value="1.1.5&#xa;youtube" style="whiteSpace=wrap;rounded=1;fillColor=#999999;strokeColor=none;shadow=1;fontColor=#FFFFFF;fontStyle=0" parent="1" vertex="1">
          <mxGeometry x="860.0000000000001" y="620.0000000000001" width="120" height="60" as="geometry" />
        </mxCell>
        <mxCell id="B7-Tg69ytmA9G3G3-VEQ-254" value="" style="edgeStyle=elbowEdgeStyle;elbow=vertical;rounded=0;fontColor=#000000;endArrow=none;endFill=0;strokeWidth=8;strokeColor=#23445D;" parent="1" edge="1">
          <mxGeometry width="100" height="100" relative="1" as="geometry">
            <mxPoint x="1089.29" y="229.9999999999999" as="sourcePoint" />
            <mxPoint x="1089.29" y="310" as="targetPoint" />
            <Array as="points">
              <mxPoint x="1089.29" y="300" />
            </Array>
          </mxGeometry>
        </mxCell>
        <mxCell id="B7-Tg69ytmA9G3G3-VEQ-255" value="" style="edgeStyle=elbowEdgeStyle;elbow=vertical;rounded=0;fontColor=#000000;endArrow=none;endFill=0;strokeWidth=8;strokeColor=#23445D;" parent="1" edge="1">
          <mxGeometry width="100" height="100" relative="1" as="geometry">
            <mxPoint x="1089.29" y="229.9999999999999" as="sourcePoint" />
            <mxPoint x="1089.29" y="310" as="targetPoint" />
            <Array as="points">
              <mxPoint x="1089.29" y="300" />
            </Array>
          </mxGeometry>
        </mxCell>
        <mxCell id="B7-Tg69ytmA9G3G3-VEQ-256" value="" style="edgeStyle=elbowEdgeStyle;elbow=vertical;rounded=0;fontColor=#000000;endArrow=none;endFill=0;strokeWidth=8;strokeColor=#23445D;" parent="1" edge="1">
          <mxGeometry width="100" height="100" relative="1" as="geometry">
            <mxPoint x="1250" y="229.9999999999999" as="sourcePoint" />
            <mxPoint x="1250" y="310" as="targetPoint" />
            <Array as="points">
              <mxPoint x="1250" y="300" />
            </Array>
          </mxGeometry>
        </mxCell>
        <mxCell id="B7-Tg69ytmA9G3G3-VEQ-257" value="" style="edgeStyle=elbowEdgeStyle;elbow=vertical;rounded=0;fontColor=#000000;endArrow=none;endFill=0;strokeWidth=8;strokeColor=#23445D;" parent="1" edge="1">
          <mxGeometry width="100" height="100" relative="1" as="geometry">
            <mxPoint x="1419.29" y="229.9999999999999" as="sourcePoint" />
            <mxPoint x="1419.29" y="310" as="targetPoint" />
            <Array as="points">
              <mxPoint x="1419.29" y="300" />
            </Array>
          </mxGeometry>
        </mxCell>
        <mxCell id="B7-Tg69ytmA9G3G3-VEQ-239" value="1.2.1&#xa;Bea et al" style="whiteSpace=wrap;rounded=1;fillColor=#999999;strokeColor=none;shadow=1;fontColor=#FFFFFF;fontStyle=0" parent="1" vertex="1">
          <mxGeometry x="1029.9999999999998" y="300.0000000000001" width="120" height="60" as="geometry" />
        </mxCell>
        <mxCell id="B7-Tg69ytmA9G3G3-VEQ-240" value="1.2.2&#xa;Kuster et al" style="whiteSpace=wrap;rounded=1;fillColor=#999999;strokeColor=none;shadow=1;fontColor=#FFFFFF;fontStyle=0" parent="1" vertex="1">
          <mxGeometry x="1030" y="380.0000000000001" width="120" height="60" as="geometry" />
        </mxCell>
        <mxCell id="B7-Tg69ytmA9G3G3-VEQ-241" value="1.2.3&#xa;https://de.wikipedia.org/wiki/Projektstruktur..." style="whiteSpace=wrap;rounded=1;fillColor=#999999;strokeColor=none;shadow=1;fontColor=#FFFFFF;fontStyle=0" parent="1" vertex="1">
          <mxGeometry x="1029.9999999999998" y="460.0000000000001" width="120" height="60" as="geometry" />
        </mxCell>
        <mxCell id="B7-Tg69ytmA9G3G3-VEQ-242" value="1.2.4&#xa;PM Youtube Playlist" style="whiteSpace=wrap;rounded=1;fillColor=#999999;strokeColor=none;shadow=1;fontColor=#FFFFFF;fontStyle=0" parent="1" vertex="1">
          <mxGeometry x="1030" y="540.0000000000001" width="120" height="60" as="geometry" />
        </mxCell>
        <mxCell id="B7-Tg69ytmA9G3G3-VEQ-243" value="1.2.5&#xa;Madauss" style="whiteSpace=wrap;rounded=1;fillColor=#999999;strokeColor=none;shadow=1;fontColor=#FFFFFF;fontStyle=0" parent="1" vertex="1">
          <mxGeometry x="1030" y="620.0000000000001" width="120" height="60" as="geometry" />
        </mxCell>
        <mxCell id="B7-Tg69ytmA9G3G3-VEQ-244" value="1.3.1&#xa;Draft in Word erstellen" style="whiteSpace=wrap;rounded=1;fillColor=#999999;strokeColor=none;shadow=1;fontColor=#FFFFFF;fontStyle=0" parent="1" vertex="1">
          <mxGeometry x="1189.9999999999998" y="300.0000000000001" width="120" height="60" as="geometry" />
        </mxCell>
        <mxCell id="B7-Tg69ytmA9G3G3-VEQ-245" value="1.3.2&#xa;Paint öffnen" style="whiteSpace=wrap;rounded=1;fillColor=#999999;strokeColor=none;shadow=1;fontColor=#FFFFFF;fontStyle=0" parent="1" vertex="1">
          <mxGeometry x="1190" y="380.0000000000001" width="120" height="60" as="geometry" />
        </mxCell>
        <mxCell id="B7-Tg69ytmA9G3G3-VEQ-246" value="1.3.3&#xa;Paint erbost schließen" style="whiteSpace=wrap;rounded=1;fillColor=#999999;strokeColor=none;shadow=1;fontColor=#FFFFFF;fontStyle=0" parent="1" vertex="1">
          <mxGeometry x="1189.9999999999998" y="460.0000000000001" width="120" height="60" as="geometry" />
        </mxCell>
        <mxCell id="B7-Tg69ytmA9G3G3-VEQ-247" value="1.3.4&#xa;diagrams.net öffnen" style="whiteSpace=wrap;rounded=1;fillColor=#999999;strokeColor=none;shadow=1;fontColor=#FFFFFF;fontStyle=0" parent="1" vertex="1">
          <mxGeometry x="1190" y="540.0000000000001" width="120" height="60" as="geometry" />
        </mxCell>
        <mxCell id="B7-Tg69ytmA9G3G3-VEQ-248" value="1.3.5&#xa;Mini-Beispiel erstellen" style="whiteSpace=wrap;rounded=1;fillColor=#999999;strokeColor=none;shadow=1;fontColor=#FFFFFF;fontStyle=0" parent="1" vertex="1">
          <mxGeometry x="1190" y="620.0000000000001" width="120" height="60" as="geometry" />
        </mxCell>
        <mxCell id="B7-Tg69ytmA9G3G3-VEQ-249" value="1.4.1&#xa;GitHub öffnen" style="whiteSpace=wrap;rounded=1;fillColor=#999999;strokeColor=none;shadow=1;fontColor=#FFFFFF;fontStyle=0" parent="1" vertex="1">
          <mxGeometry x="1359.9999999999998" y="300.0000000000001" width="120" height="60" as="geometry" />
        </mxCell>
        <mxCell id="B7-Tg69ytmA9G3G3-VEQ-250" value="1.4.2&#xa;Tutorial absolvieren" style="whiteSpace=wrap;rounded=1;fillColor=#999999;strokeColor=none;shadow=1;fontColor=#FFFFFF;fontStyle=0" parent="1" vertex="1">
          <mxGeometry x="1360" y="380.0000000000001" width="120" height="60" as="geometry" />
        </mxCell>
        <mxCell id="B7-Tg69ytmA9G3G3-VEQ-251" value="1.4.3&#xa;Inhalt platzieren und redigieren" style="whiteSpace=wrap;rounded=1;fillColor=#999999;strokeColor=none;shadow=1;fontColor=#FFFFFF;fontStyle=0" parent="1" vertex="1">
          <mxGeometry x="1359.9999999999998" y="460.0000000000001" width="120" height="60" as="geometry" />
        </mxCell>
        <mxCell id="B7-Tg69ytmA9G3G3-VEQ-252" value="1.4.4&#xa;18 Tabs schließen" style="whiteSpace=wrap;rounded=1;fillColor=#999999;strokeColor=none;shadow=1;fontColor=#FFFFFF;fontStyle=0" parent="1" vertex="1">
          <mxGeometry x="1360" y="540.0000000000001" width="120" height="60" as="geometry" />
        </mxCell>
        <mxCell id="B7-Tg69ytmA9G3G3-VEQ-253" value="&#xa;1.4.5&#xa;Projektabschluss feiern&#xa;" style="whiteSpace=wrap;rounded=1;fillColor=#999999;strokeColor=none;shadow=1;fontColor=#FFFFFF;fontStyle=0" parent="1" vertex="1">
          <mxGeometry x="1360" y="620.0000000000001" width="120" height="60" as="geometry" />
        </mxCell>
        <mxCell id="B7-Tg69ytmA9G3G3-VEQ-258" value="&lt;font style=&quot;font-size: 19px&quot;&gt;Projektname&lt;/font&gt;" style="rounded=1;whiteSpace=wrap;html=1;" parent="1" vertex="1">
          <mxGeometry x="670" y="50" width="120" height="60" as="geometry" />
        </mxCell>
        <mxCell id="B7-Tg69ytmA9G3G3-VEQ-259" value="&lt;font style=&quot;font-size: 20px&quot;&gt;Projektname&lt;/font&gt;" style="rounded=1;whiteSpace=wrap;html=1;" parent="1" vertex="1">
          <mxGeometry x="670" y="50" width="160" height="60" as="geometry" />
        </mxCell>
        <mxCell id="B7-Tg69ytmA9G3G3-VEQ-260" value="&lt;font style=&quot;font-size: 20px&quot;&gt;Teilprojekte&lt;/font&gt;" style="rounded=1;whiteSpace=wrap;html=1;" parent="1" vertex="1">
          <mxGeometry x="670" y="170" width="120" height="60" as="geometry" />
        </mxCell>
        <mxCell id="B7-Tg69ytmA9G3G3-VEQ-261" value="&lt;font style=&quot;font-size: 20px&quot;&gt;Teilprojekte&lt;/font&gt;" style="rounded=1;whiteSpace=wrap;html=1;" parent="1" vertex="1">
          <mxGeometry x="670" y="170" width="160" height="60" as="geometry" />
        </mxCell>
        <mxCell id="B7-Tg69ytmA9G3G3-VEQ-262" value="&lt;font style=&quot;font-size: 20px&quot;&gt;Arbeitspakete&lt;/font&gt;" style="rounded=1;whiteSpace=wrap;html=1;" parent="1" vertex="1">
          <mxGeometry x="670" y="300" width="160" height="60" as="geometry" />
        </mxCell>
        <mxCell id="B7-Tg69ytmA9G3G3-VEQ-265" value="*Die angeführten Nummern können als Identifier bzw. PSP-Code bezeichnet werden und dienen der Orientierung in Plan und Arbeitsablauf" style="text;html=1;strokeColor=none;fillColor=none;align=center;verticalAlign=middle;whiteSpace=wrap;rounded=0;" parent="1" vertex="1">
          <mxGeometry x="760" y="700" width="720" height="20" as="geometry" />
        </mxCell>
      </root>
    </mxGraphModel>
  </diagram>
</mxfile>
